<svg xmlns="http://www.w3.org/2000/svg" viewBox="0 0 1600 1000" preserveAspectRatio="xMidYMid slice">
  <defs>
    <radialGradient id="base" cx="35%" cy="36%" r="84%">
      <stop stop-color="#3c4954"/>
      <stop offset="0.48" stop-color="#151c23"/>
      <stop offset="1" stop-color="#061427"/>
    </radialGradient>
    <linearGradient id="shore" x1="0" y1="0" x2="1" y2="1">
      <stop stop-color="#e4edf5"/>
      <stop offset="1" stop-color="#2e5d8c"/>
    </linearGradient>
    <pattern id="flecks" width="40" height="40" patternUnits="userSpaceOnUse">
      <circle cx="7" cy="7" r="1.6" fill="#6aa7e8" opacity="0.8"/>
      <circle cx="22" cy="13" r="1.3" fill="#075ca8" opacity="0.9"/>
      <circle cx="33" cy="31" r="1.1" fill="#f8fbff" opacity="0.35"/>
      <circle cx="11" cy="29" r="1.4" fill="#2f7dca" opacity="0.68"/>
    </pattern>
    <filter id="soften">
      <feGaussianBlur stdDeviation="6"/>
    </filter>
  </defs>
  <rect width="1600" height="1000" fill="url(#base)"/>
  <path d="M0 135c270-64 483-38 640 77 179 131 377 143 595 51 141-60 263-76 365-48v264H0Z" fill="#4d6575" opacity="0.38" filter="url(#soften)"/>
  <path d="M0 314c248-54 458-34 630 61 210 117 435 120 688 13 96-40 189-56 282-46v137c-181-23-327 13-474 73-210 85-407 67-594-27-158-79-334-92-532-47Z" fill="url(#shore)" opacity="0.68"/>
  <rect y="390" width="1600" height="610" fill="url(#base)"/>
  <rect y="390" width="1600" height="610" fill="url(#flecks)" opacity="0.96"/>
  <path d="M-80 720c225-96 443-91 653 16 264 135 561 126 1107-80" fill="none" stroke="#6aa7e8" stroke-width="48" stroke-linecap="round" opacity="0.62"/>
  <path d="M-70 780c227-77 444-66 652 28 270 122 582 104 1102-89" fill="none" stroke="#075ca8" stroke-width="17" stroke-linecap="round" opacity="0.86"/>
</svg>
